<svg width="1243" height="452" viewBox="0 0 1243 452" fill="none" xmlns="http://www.w3.org/2000/svg">
<circle cx="226" cy="226" r="226" fill="#FF5D17"/>
<path d="M126.5 154H328C353 154 358 171 358 187.5V298H95V187.5C95 171 101.5 154 126.5 154Z" fill="white"/>
<line x1="130" y1="315" x2="323" y2="315" stroke="white" stroke-width="10"/>
<line x1="162" y1="272" x2="246" y2="272" stroke="#FF5D17" stroke-width="10"/>
<line x1="149" y1="335" x2="303" y2="335" stroke="white" stroke-width="10"/>
<line x1="189" y1="354" x2="265" y2="354" stroke="white" stroke-width="10"/>
<line x1="204.507" y1="163.422" x2="246.507" y2="122.422" stroke="white" stroke-width="10"/>
<line x1="201.747" y1="79.689" x2="239.747" y2="122.689" stroke="white" stroke-width="10"/>
<circle cx="159.5" cy="204.5" r="29.5" fill="#FF5D17"/>
<circle cx="293.5" cy="204.5" r="29.5" fill="#FF5D17"/>
<circle cx="204.5" cy="78.5" r="18.5" fill="white"/>
<path d="M492.3 320.4C490.5 317.6 489.6 314.9 489.6 312.3C489.6 308.3 491.7 304.9 495.9 302.1C497.9 300.7 500.2 300 502.8 300C506.4 300 509.7 301.5 512.7 304.5C518.7 311.3 525.1 316.4 531.9 319.8C538.9 323.2 547.2 324.9 556.8 324.9C564.4 324.7 571.1 323 576.9 319.8C582.7 316.4 585.6 311 585.6 303.6C585.6 296.8 582.6 291.6 576.6 288C570.8 284.4 562.2 281.1 550.8 278.1C539.6 275.1 530.3 272 522.9 268.8C515.5 265.4 509.2 260.6 504 254.4C499 248 496.5 239.7 496.5 229.5C496.5 220.5 499 212.6 504 205.8C509.2 199 516 193.7 524.4 189.9C533 186.1 542.3 184.2 552.3 184.2C561.9 184.2 571.4 186 580.8 189.6C590.4 193.2 598.2 198.7 604.2 206.1C606.6 208.9 607.8 211.8 607.8 214.8C607.8 218 606.2 221.1 603 224.1C601 225.9 598.5 226.8 595.5 226.8C591.9 226.8 589 225.6 586.8 223.2C582.6 218.4 577.4 214.7 571.2 212.1C565.2 209.5 558.5 208.2 551.1 208.2C543.5 208.2 537 209.8 531.6 213C526.4 216 523.8 221.2 523.8 228.6C524 235.6 527 240.8 532.8 244.2C538.8 247.6 547.9 250.9 560.1 254.1C570.7 256.9 579.5 259.9 586.5 263.1C593.5 266.3 599.4 271.1 604.2 277.5C609 283.7 611.4 291.9 611.4 302.1C611.4 311.5 608.7 319.7 603.3 326.7C597.9 333.5 590.8 338.8 582 342.6C573.4 346.2 564.2 348 554.4 348C541.8 348 530.1 345.8 519.3 341.4C508.7 337 499.7 330 492.3 320.4ZM764.269 260.4C764.069 264 762.569 267.1 759.769 269.7C756.969 272.1 753.669 273.3 749.869 273.3H644.269C645.669 287.9 651.169 299.6 660.769 308.4C670.569 317.2 682.469 321.6 696.469 321.6C706.069 321.6 713.869 320.2 719.869 317.4C725.869 314.6 731.169 311 735.769 306.6C738.769 304.8 741.669 303.9 744.469 303.9C747.869 303.9 750.669 305.1 752.869 307.5C755.269 309.9 756.469 312.7 756.469 315.9C756.469 320.1 754.469 323.9 750.469 327.3C744.669 333.1 736.969 338 727.369 342C717.769 346 707.969 348 697.969 348C681.769 348 667.469 344.6 655.069 337.8C642.869 331 633.369 321.5 626.569 309.3C619.969 297.1 616.669 283.3 616.669 267.9C616.669 251.1 620.069 236.4 626.869 223.8C633.869 211 642.969 201.2 654.169 194.4C665.569 187.6 677.769 184.2 690.769 184.2C703.569 184.2 715.569 187.5 726.769 194.1C737.969 200.7 746.969 209.8 753.769 221.4C760.569 233 764.069 246 764.269 260.4ZM690.769 210.6C679.569 210.6 669.869 213.8 661.669 220.2C653.469 226.4 648.069 236.1 645.469 249.3H733.969V246.9C732.969 236.3 728.169 227.6 719.569 220.8C711.169 214 701.569 210.6 690.769 210.6ZM906.863 123C911.063 123 914.463 124.4 917.063 127.2C919.863 129.8 921.263 133.2 921.263 137.4V330.6C921.263 334.6 919.863 338 917.063 340.8C914.463 343.6 911.063 345 906.863 345C902.663 345 899.263 343.7 896.663 341.1C894.063 338.3 892.763 334.8 892.763 330.6V322.2C887.763 329.4 880.663 335.5 871.463 340.5C862.463 345.5 852.763 348 842.363 348C828.763 348 816.463 344.5 805.463 337.5C794.463 330.5 785.763 320.8 779.363 308.4C772.963 295.8 769.763 281.7 769.763 266.1C769.763 250.5 772.863 236.5 779.063 224.1C785.463 211.5 794.163 201.7 805.163 194.7C816.163 187.7 828.263 184.2 841.463 184.2C852.063 184.2 861.863 186.4 870.863 190.8C879.863 195.2 887.163 200.9 892.763 207.9V137.4C892.763 133.2 894.063 129.8 896.663 127.2C899.263 124.4 902.663 123 906.863 123ZM845.663 321.6C855.063 321.6 863.363 319.2 870.563 314.4C877.963 309.6 883.663 303 887.663 294.6C891.863 286.2 893.963 276.7 893.963 266.1C893.963 255.7 891.863 246.3 887.663 237.9C883.663 229.3 877.963 222.6 870.563 217.8C863.363 213 855.063 210.6 845.663 210.6C836.263 210.6 827.863 213 820.463 217.8C813.263 222.6 807.563 229.3 803.363 237.9C799.363 246.3 797.363 255.7 797.363 266.1C797.363 276.7 799.363 286.2 803.363 294.6C807.563 303 813.263 309.6 820.463 314.4C827.863 319.2 836.263 321.6 845.663 321.6ZM1073.14 123C1077.34 123 1080.74 124.4 1083.34 127.2C1086.14 129.8 1087.54 133.2 1087.54 137.4V330.6C1087.54 334.6 1086.14 338 1083.34 340.8C1080.74 343.6 1077.34 345 1073.14 345C1068.94 345 1065.54 343.7 1062.94 341.1C1060.34 338.3 1059.04 334.8 1059.04 330.6V322.2C1054.04 329.4 1046.94 335.5 1037.74 340.5C1028.74 345.5 1019.04 348 1008.64 348C995.04 348 982.74 344.5 971.74 337.5C960.74 330.5 952.04 320.8 945.64 308.4C939.24 295.8 936.04 281.7 936.04 266.1C936.04 250.5 939.14 236.5 945.34 224.1C951.74 211.5 960.44 201.7 971.44 194.7C982.44 187.7 994.54 184.2 1007.74 184.2C1018.34 184.2 1028.14 186.4 1037.14 190.8C1046.14 195.2 1053.44 200.9 1059.04 207.9V137.4C1059.04 133.2 1060.34 129.8 1062.94 127.2C1065.54 124.4 1068.94 123 1073.14 123ZM1011.94 321.6C1021.34 321.6 1029.64 319.2 1036.84 314.4C1044.24 309.6 1049.94 303 1053.94 294.6C1058.14 286.2 1060.24 276.7 1060.24 266.1C1060.24 255.7 1058.14 246.3 1053.94 237.9C1049.94 229.3 1044.24 222.6 1036.84 217.8C1029.64 213 1021.34 210.6 1011.94 210.6C1002.54 210.6 994.14 213 986.74 217.8C979.54 222.6 973.84 229.3 969.64 237.9C965.64 246.3 963.64 255.7 963.64 266.1C963.64 276.7 965.64 286.2 969.64 294.6C973.84 303 979.54 309.6 986.74 314.4C994.14 319.2 1002.54 321.6 1011.94 321.6ZM1138.92 330.6C1138.92 334.6 1137.52 338 1134.72 340.8C1132.12 343.6 1128.72 345 1124.52 345C1120.52 345 1117.12 343.6 1114.32 340.8C1111.72 338 1110.42 334.6 1110.42 330.6V200.7C1110.42 196.7 1111.72 193.3 1114.32 190.5C1117.12 187.7 1120.52 186.3 1124.52 186.3C1128.72 186.3 1132.12 187.7 1134.72 190.5C1137.52 193.3 1138.92 196.7 1138.92 200.7V330.6ZM1124.52 166.5C1118.72 166.5 1114.52 165.5 1111.92 163.5C1109.52 161.3 1108.32 157.9 1108.32 153.3V148.5C1108.32 143.7 1109.62 140.3 1112.22 138.3C1115.02 136.3 1119.22 135.3 1124.82 135.3C1130.42 135.3 1134.42 136.4 1136.82 138.6C1139.42 140.6 1140.72 143.9 1140.72 148.5V153.3C1140.72 158.1 1139.42 161.5 1136.82 163.5C1134.22 165.5 1130.12 166.5 1124.52 166.5ZM1204.49 215.7V305.1C1204.49 315.1 1208.99 320.1 1217.99 320.1C1219.39 320.1 1221.29 319.8 1223.69 319.2C1226.09 318.4 1227.99 318 1229.39 318C1231.99 318 1234.19 319.1 1235.99 321.3C1237.79 323.5 1238.69 326.3 1238.69 329.7C1238.69 333.9 1236.29 337.5 1231.49 340.5C1226.69 343.5 1221.29 345 1215.29 345C1208.69 345 1202.59 344.3 1196.99 342.9C1191.59 341.5 1186.69 338 1182.29 332.4C1178.09 326.6 1175.99 317.9 1175.99 306.3V215.7H1158.59C1154.79 215.7 1151.59 214.5 1148.99 212.1C1146.59 209.5 1145.39 206.3 1145.39 202.5C1145.39 198.7 1146.59 195.6 1148.99 193.2C1151.59 190.8 1154.79 189.6 1158.59 189.6H1175.99V164.4C1175.99 160.4 1177.29 157 1179.89 154.2C1182.69 151.4 1186.19 150 1190.39 150C1194.39 150 1197.69 151.4 1200.29 154.2C1203.09 157 1204.49 160.4 1204.49 164.4V189.6H1229.39C1233.19 189.6 1236.29 190.9 1238.69 193.5C1241.29 195.9 1242.59 199 1242.59 202.8C1242.59 206.6 1241.29 209.7 1238.69 212.1C1236.29 214.5 1233.19 215.7 1229.39 215.7H1204.49Z" fill="black"/>
<circle cx="1124.5" cy="146.5" r="27.5" fill="#FF5D17"/>
</svg>
